<svg width="100" height="100" viewBox="0 0 100 100" fill="none" xmlns="http://www.w3.org/2000/svg">
<path d="M50 39.96C43.36 39.96 37.96 45.36 37.96 52C37.96 58.64 43.36 64.04 50 64.04C56.64 64.04 62.04 58.64 62.04 52C62.04 45.36 56.64 39.96 50 39.96ZM55.52 53.76H52V57.28C52 58.4 51.12 59.28 50 59.28C48.88 59.28 48 58.4 48 57.28V53.76H44.48C43.36 53.76 42.48 52.88 42.48 51.76C42.48 50.64 43.36 49.76 44.48 49.76H48V46.24C48 45.12 48.88 44.24 50 44.24C51.12 44.24 52 45.12 52 46.24V49.76H55.52C56.64 49.76 57.52 50.64 57.52 51.76C57.52 52.88 56.6 53.76 55.52 53.76ZM73.6 32.2H64.84C64.08 32.2 63.4 31.76 63.04 31.08L60.72 26.4C60.04 25.04 58.64 24.2 57.16 24.2H42.92C41.4 24.2 40 25.04 39.36 26.4L37 31.08C36.68 31.76 35.96 32.2 35.2 32.2H26.4C23.08 32.2 20.4 34.88 20.4 38.2V65.8C20.4 69.12 23.08 71.8 26.4 71.8H73.6C76.92 71.8 79.6 69.12 79.6 65.8V38.2C79.6 34.88 76.92 32.2 73.6 32.2ZM50 68.04C41.12 68.04 33.96 60.84 33.96 52C33.96 43.12 41.16 35.96 50 35.96C58.84 35.96 66.04 43.16 66.04 52C66.04 60.88 58.88 68.04 50 68.04Z" fill="#979797"/>
</svg>
